{
    "asset": {
        "generator": "Khronos glTF Blender I/O v1.4.40",
        "version": "2.0"
    },
    "scene": 0,
    "scenes": [
        {
            "name": "Scene",
            "nodes": [
                0
            ]
        }
    ],
    "nodes": [
        {
            "mesh": 0,
            "name": "bullet"
        }
    ],
    "meshes": [
        {
            "name": "bullet",
            "primitives": [
                {
                    "attributes": {
                        "POSITION": 0,
                        "NORMAL": 1
                    },
                    "indices": 2
                }
            ]
        }
    ],
    "accessors": [
        {
            "bufferView": 0,
            "componentType": 5126,
            "count": 256,
            "max": [
                0.06061999872326851,
                0.5606200098991394,
                0.16000008583068848
            ],
            "min": [
                -0.06061999872326851,
                0.4393799901008606,
                -0.15999992191791534
            ],
            "type": "VEC3"
        },
        {
            "bufferView": 1,
            "componentType": 5126,
            "count": 256,
            "type": "VEC3"
        },
        {
            "bufferView": 2,
            "componentType": 5123,
            "count": 378,
            "type": "SCALAR"
        }
    ],
    "bufferViews": [
        {
            "buffer": 0,
            "byteLength": 3072,
            "byteOffset": 0
        },
        {
            "buffer": 0,
            "byteLength": 3072,
            "byteOffset": 3072
        },
        {
            "buffer": 0,
            "byteLength": 756,
            "byteOffset": 6144
        }
    ],
    "buffers": [
        {
            "byteLength": 6900,
            "uri": "data:application/octet-stream;base64,"
        }
    ]
}