{
    "asset": {
        "generator": "Khronos glTF Blender I/O v1.4.40",
        "version": "2.0"
    },
    "scene": 0,
    "scenes": [
        {
            "name": "Scene",
            "nodes": [
                0
            ]
        }
    ],
    "nodes": [
        {
            "mesh": 0,
            "name": "tree"
        }
    ],
    "meshes": [
        {
            "name": "tree",
            "primitives": [
                {
                    "attributes": {
                        "POSITION": 0,
                        "NORMAL": 1
                    },
                    "indices": 2
                }
            ]
        }
    ],
    "accessors": [
        {
            "bufferView": 0,
            "componentType": 5126,
            "count": 1006,
            "max": [
                0.6371920108795166,
                1.6896589994430542,
                0.6558741927146912
            ],
            "min": [
                -0.5242490172386169,
                -0.00513101601973176,
                -0.5043078064918518
            ],
            "type": "VEC3"
        },
        {
            "bufferView": 1,
            "componentType": 5126,
            "count": 1006,
            "type": "VEC3"
        },
        {
            "bufferView": 2,
            "componentType": 5123,
            "count": 1056,
            "type": "SCALAR"
        }
    ],
    "bufferViews": [
        {
            "buffer": 0,
            "byteLength": 12072,
            "byteOffset": 0
        },
        {
            "buffer": 0,
            "byteLength": 12072,
            "byteOffset": 12072
        },
        {
            "buffer": 0,
            "byteLength": 2112,
            "byteOffset": 24144
        }
    ],
    "buffers": [
        {
            "byteLength": 26256,
            "uri": "data:application/octet-stream;base64,"
        }
    ]
}