{
    "asset" : {
        "generator" : "Khronos glTF Blender I/O v1.4.40",
        "version" : "2.0"
    },
    "scene" : 0,
    "scenes" : [
        {
            "name" : "Scene",
            "nodes" : [
                8
            ]
        }
    ],
    "nodes" : [
        {
            "mesh" : 0,
            "name" : "barrel"
        },
        {
            "children" : [
                0
            ],
            "mesh" : 1,
            "name" : "turret"
        },
        {
            "mesh" : 2,
            "name" : "wheel0"
        },
        {
            "mesh" : 3,
            "name" : "wheel1"
        },
        {
            "mesh" : 4,
            "name" : "wheel2"
        },
        {
            "mesh" : 5,
            "name" : "wheel3"
        },
        {
            "mesh" : 6,
            "name" : "wheel4"
        },
        {
            "children" : [
                1,
                2,
                3,
                4,
                5,
                6
            ],
            "mesh" : 7,
            "name" : "body"
        },
        {
            "children" : [
                7
            ],
            "name" : "tank"
        }
    ],
    "materials" : [
        {
            "doubleSided" : true,
            "name" : "Tank",
            "pbrMetallicRoughness" : {
                "metallicFactor" : 0,
                "roughnessFactor" : 0.5
            }
        }
    ],
    "meshes" : [
        {
            "name" : "Cube.002",
            "primitives" : [
                {
                    "attributes" : {
                        "POSITION" : 0,
                        "NORMAL" : 1,
                        "TEXCOORD_0" : 2
                    },
                    "indices" : 3,
                    "material" : 0
                }
            ]
        },
        {
            "name" : "Cube.017",
            "primitives" : [
                {
                    "attributes" : {
                        "POSITION" : 4,
                        "NORMAL" : 5,
                        "TEXCOORD_0" : 6
                    },
                    "indices" : 7,
                    "material" : 0
                }
            ]
        },
        {
            "name" : "Cube.010",
            "primitives" : [
                {
                    "attributes" : {
                        "POSITION" : 8,
                        "NORMAL" : 9,
                        "TEXCOORD_0" : 10
                    },
                    "indices" : 11,
                    "material" : 0
                }
            ]
        },
        {
            "name" : "Cube.009",
            "primitives" : [
                {
                    "attributes" : {
                        "POSITION" : 12,
                        "NORMAL" : 13,
                        "TEXCOORD_0" : 14
                    },
                    "indices" : 15,
                    "material" : 0
                }
            ]
        },
        {
            "name" : "Cube.004",
            "primitives" : [
                {
                    "attributes" : {
                        "POSITION" : 16,
                        "NORMAL" : 17,
                        "TEXCOORD_0" : 18
                    },
                    "indices" : 19,
                    "material" : 0
                }
            ]
        },
        {
            "name" : "Cube.006",
            "primitives" : [
                {
                    "attributes" : {
                        "POSITION" : 20,
                        "NORMAL" : 21,
                        "TEXCOORD_0" : 22
                    },
                    "indices" : 23,
                    "material" : 0
                }
            ]
        },
        {
            "name" : "Cube.016",
            "primitives" : [
                {
                    "attributes" : {
                        "POSITION" : 24,
                        "NORMAL" : 25,
                        "TEXCOORD_0" : 26
                    },
                    "indices" : 27,
                    "material" : 0
                }
            ]
        },
        {
            "name" : "Cube.048",
            "primitives" : [
                {
                    "attributes" : {
                        "POSITION" : 28,
                        "NORMAL" : 29,
                        "TEXCOORD_0" : 30
                    },
                    "indices" : 31,
                    "material" : 0
                }
            ]
        }
    ],
    "accessors" : [
        {
            "bufferView" : 0,
            "componentType" : 5126,
            "count" : 443,
            "max" : [
                0.12704350054264069,
                0.6040585041046143,
                -0.22024911642074585
            ],
            "min" : [
                -0.12704364955425262,
                0.4344005584716797,
                -0.6787654757499695
            ],
            "type" : "VEC3"
        },
        {
            "bufferView" : 1,
            "componentType" : 5126,
            "count" : 443,
            "type" : "VEC3"
        },
        {
            "bufferView" : 2,
            "componentType" : 5126,
            "count" : 443,
            "type" : "VEC2"
        },
        {
            "bufferView" : 3,
            "componentType" : 5123,
            "count" : 1164,
            "type" : "SCALAR"
        },
        {
            "bufferView" : 4,
            "componentType" : 5126,
            "count" : 744,
            "max" : [
                0.22096174955368042,
                0.6971772909164429,
                0.36838841438293457
            ],
            "min" : [
                -0.2221669852733612,
                0.3587561845779419,
                -0.2897600829601288
            ],
            "type" : "VEC3"
        },
        {
            "bufferView" : 5,
            "componentType" : 5126,
            "count" : 744,
            "type" : "VEC3"
        },
        {
            "bufferView" : 6,
            "componentType" : 5126,
            "count" : 744,
            "type" : "VEC2"
        },
        {
            "bufferView" : 7,
            "componentType" : 5123,
            "count" : 2220,
            "type" : "SCALAR"
        },
        {
            "bufferView" : 8,
            "componentType" : 5126,
            "count" : 260,
            "max" : [
                0.4322858452796936,
                0.1214728057384491,
                -0.2693627178668976
            ],
            "min" : [
                -0.43228599429130554,
                0.06672608852386475,
                -0.32410958409309387
            ],
            "type" : "VEC3"
        },
        {
            "bufferView" : 9,
            "componentType" : 5126,
            "count" : 260,
            "type" : "VEC3"
        },
        {
            "bufferView" : 10,
            "componentType" : 5126,
            "count" : 260,
            "type" : "VEC2"
        },
        {
            "bufferView" : 11,
            "componentType" : 5123,
            "count" : 768,
            "type" : "SCALAR"
        },
        {
            "bufferView" : 12,
            "componentType" : 5126,
            "count" : 356,
            "max" : [
                0.4334157109260559,
                0.16841423511505127,
                -0.11953801661729813
            ],
            "min" : [
                -0.4334157705307007,
                0.01956552267074585,
                -0.2683868706226349
            ],
            "type" : "VEC3"
        },
        {
            "bufferView" : 13,
            "componentType" : 5126,
            "count" : 356,
            "type" : "VEC3"
        },
        {
            "bufferView" : 14,
            "componentType" : 5126,
            "count" : 356,
            "type" : "VEC2"
        },
        {
            "bufferView" : 15,
            "componentType" : 5123,
            "count" : 1008,
            "type" : "SCALAR"
        },
        {
            "bufferView" : 16,
            "componentType" : 5126,
            "count" : 364,
            "max" : [
                0.4334157109260559,
                0.16841423511505127,
                0.030162006616592407
            ],
            "min" : [
                -0.4334157407283783,
                0.01956552267074585,
                -0.11868683993816376
            ],
            "type" : "VEC3"
        },
        {
            "bufferView" : 17,
            "componentType" : 5126,
            "count" : 364,
            "type" : "VEC3"
        },
        {
            "bufferView" : 18,
            "componentType" : 5126,
            "count" : 364,
            "type" : "VEC2"
        },
        {
            "bufferView" : 19,
            "componentType" : 5123,
            "count" : 1008,
            "type" : "SCALAR"
        },
        {
            "bufferView" : 20,
            "componentType" : 5126,
            "count" : 356,
            "max" : [
                0.4334157407283783,
                0.16841423511505127,
                0.17859745025634766
            ],
            "min" : [
                -0.4334157109260559,
                0.01956552267074585,
                0.02974861115217209
            ],
            "type" : "VEC3"
        },
        {
            "bufferView" : 21,
            "componentType" : 5126,
            "count" : 356,
            "type" : "VEC3"
        },
        {
            "bufferView" : 22,
            "componentType" : 5126,
            "count" : 356,
            "type" : "VEC2"
        },
        {
            "bufferView" : 23,
            "componentType" : 5123,
            "count" : 1008,
            "type" : "SCALAR"
        },
        {
            "bufferView" : 24,
            "componentType" : 5126,
            "count" : 356,
            "max" : [
                0.4334157407283783,
                0.16841423511505127,
                0.3271982967853546
            ],
            "min" : [
                -0.4334157109260559,
                0.01956552267074585,
                0.17834943532943726
            ],
            "type" : "VEC3"
        },
        {
            "bufferView" : 25,
            "componentType" : 5126,
            "count" : 356,
            "type" : "VEC3"
        },
        {
            "bufferView" : 26,
            "componentType" : 5126,
            "count" : 356,
            "type" : "VEC2"
        },
        {
            "bufferView" : 27,
            "componentType" : 5123,
            "count" : 1008,
            "type" : "SCALAR"
        },
        {
            "bufferView" : 28,
            "componentType" : 5126,
            "count" : 1225,
            "max" : [
                0.45283788442611694,
                0.9157515168190002,
                0.46214762330055237
            ],
            "min" : [
                -0.45283782482147217,
                6.251121521927416e-05,
                -0.559723973274231
            ],
            "type" : "VEC3"
        },
        {
            "bufferView" : 29,
            "componentType" : 5126,
            "count" : 1225,
            "type" : "VEC3"
        },
        {
            "bufferView" : 30,
            "componentType" : 5126,
            "count" : 1225,
            "type" : "VEC2"
        },
        {
            "bufferView" : 31,
            "componentType" : 5123,
            "count" : 3264,
            "type" : "SCALAR"
        }
    ],
    "bufferViews" : [
        {
            "buffer" : 0,
            "byteLength" : 5316,
            "byteOffset" : 0
        },
        {
            "buffer" : 0,
            "byteLength" : 5316,
            "byteOffset" : 5316
        },
        {
            "buffer" : 0,
            "byteLength" : 3544,
            "byteOffset" : 10632
        },
        {
            "buffer" : 0,
            "byteLength" : 2328,
            "byteOffset" : 14176
        },
        {
            "buffer" : 0,
            "byteLength" : 8928,
            "byteOffset" : 16504
        },
        {
            "buffer" : 0,
            "byteLength" : 8928,
            "byteOffset" : 25432
        },
        {
            "buffer" : 0,
            "byteLength" : 5952,
            "byteOffset" : 34360
        },
        {
            "buffer" : 0,
            "byteLength" : 4440,
            "byteOffset" : 40312
        },
        {
            "buffer" : 0,
            "byteLength" : 3120,
            "byteOffset" : 44752
        },
        {
            "buffer" : 0,
            "byteLength" : 3120,
            "byteOffset" : 47872
        },
        {
            "buffer" : 0,
            "byteLength" : 2080,
            "byteOffset" : 50992
        },
        {
            "buffer" : 0,
            "byteLength" : 1536,
            "byteOffset" : 53072
        },
        {
            "buffer" : 0,
            "byteLength" : 4272,
            "byteOffset" : 54608
        },
        {
            "buffer" : 0,
            "byteLength" : 4272,
            "byteOffset" : 58880
        },
        {
            "buffer" : 0,
            "byteLength" : 2848,
            "byteOffset" : 63152
        },
        {
            "buffer" : 0,
            "byteLength" : 2016,
            "byteOffset" : 66000
        },
        {
            "buffer" : 0,
            "byteLength" : 4368,
            "byteOffset" : 68016
        },
        {
            "buffer" : 0,
            "byteLength" : 4368,
            "byteOffset" : 72384
        },
        {
            "buffer" : 0,
            "byteLength" : 2912,
            "byteOffset" : 76752
        },
        {
            "buffer" : 0,
            "byteLength" : 2016,
            "byteOffset" : 79664
        },
        {
            "buffer" : 0,
            "byteLength" : 4272,
            "byteOffset" : 81680
        },
        {
            "buffer" : 0,
            "byteLength" : 4272,
            "byteOffset" : 85952
        },
        {
            "buffer" : 0,
            "byteLength" : 2848,
            "byteOffset" : 90224
        },
        {
            "buffer" : 0,
            "byteLength" : 2016,
            "byteOffset" : 93072
        },
        {
            "buffer" : 0,
            "byteLength" : 4272,
            "byteOffset" : 95088
        },
        {
            "buffer" : 0,
            "byteLength" : 4272,
            "byteOffset" : 99360
        },
        {
            "buffer" : 0,
            "byteLength" : 2848,
            "byteOffset" : 103632
        },
        {
            "buffer" : 0,
            "byteLength" : 2016,
            "byteOffset" : 106480
        },
        {
            "buffer" : 0,
            "byteLength" : 14700,
            "byteOffset" : 108496
        },
        {
            "buffer" : 0,
            "byteLength" : 14700,
            "byteOffset" : 123196
        },
        {
            "buffer" : 0,
            "byteLength" : 9800,
            "byteOffset" : 137896
        },
        {
            "buffer" : 0,
            "byteLength" : 6528,
            "byteOffset" : 147696
        }
    ],
    "buffers" : [
        {
            "byteLength" : 154224,
            "uri" : "data:application/octet-stream;base64,"
        }
    ]
}
