{
    "asset" : {
        "generator" : "Khronos glTF Blender I/O v1.4.40",
        "version" : "2.0"
    },
    "scene" : 0,
    "scenes" : [
        {
            "name" : "Scene",
            "nodes" : [
                8
            ]
        }
    ],
    "nodes" : [
        {
            "mesh" : 0,
            "name" : "barrel",
            "translation" : [
                0,
                0.6697925329208374,
                -0.513573169708252
            ]
        },
        {
            "children" : [
                0
            ],
            "mesh" : 1,
            "name" : "turret",
            "translation" : [
                0.002410226035863161,
                -0.021737363189458847,
                -1.5665335655212402
            ]
        },
        {
            "mesh" : 2,
            "name" : "wheel0",
            "translation" : [
                0,
                1.1869438886642456,
                -0.3763972520828247
            ]
        },
        {
            "mesh" : 3,
            "name" : "wheel1",
            "translation" : [
                0,
                0.7758496999740601,
                -0.3759596049785614
            ]
        },
        {
            "mesh" : 4,
            "name" : "wheel2",
            "translation" : [
                0,
                0.17704962193965912,
                -0.375959575176239
            ]
        },
        {
            "mesh" : 5,
            "name" : "wheel3",
            "translation" : [
                0,
                -0.4166921377182007,
                -0.3759595453739166
            ]
        },
        {
            "mesh" : 6,
            "name" : "wheel4",
            "translation" : [
                0,
                -1.0110955238342285,
                -0.3759595453739166
            ]
        },
        {
            "children" : [
                1,
                2,
                3,
                4,
                5,
                6
            ],
            "mesh" : 7,
            "name" : "body"
        },
        {
            "children" : [
                7
            ],
            "name" : "tank",
            "rotation" : [
                0,
                0.7071068286895752,
                -0.7071068286895752,
                -3.090862321641907e-08
            ],
            "scale" : [
                0.25,
                0.25,
                0.25
            ]
        }
    ],
    "materials" : [
        {
            "doubleSided" : true,
            "name" : "Tank",
            "pbrMetallicRoughness" : {
                "metallicFactor" : 0,
                "roughnessFactor" : 0.5
            }
        }
    ],
    "meshes" : [
        {
            "name" : "Cube.002",
            "primitives" : [
                {
                    "attributes" : {
                        "POSITION" : 0,
                        "NORMAL" : 1,
                        "TEXCOORD_0" : 2
                    },
                    "indices" : 3,
                    "material" : 0
                }
            ]
        },
        {
            "name" : "Cube.017",
            "primitives" : [
                {
                    "attributes" : {
                        "POSITION" : 4,
                        "NORMAL" : 5,
                        "TEXCOORD_0" : 6
                    },
                    "indices" : 7,
                    "material" : 0
                }
            ]
        },
        {
            "name" : "Cube.010",
            "primitives" : [
                {
                    "attributes" : {
                        "POSITION" : 8,
                        "NORMAL" : 9,
                        "TEXCOORD_0" : 10
                    },
                    "indices" : 11,
                    "material" : 0
                }
            ]
        },
        {
            "name" : "Cube.009",
            "primitives" : [
                {
                    "attributes" : {
                        "POSITION" : 12,
                        "NORMAL" : 13,
                        "TEXCOORD_0" : 14
                    },
                    "indices" : 15,
                    "material" : 0
                }
            ]
        },
        {
            "name" : "Cube.004",
            "primitives" : [
                {
                    "attributes" : {
                        "POSITION" : 16,
                        "NORMAL" : 17,
                        "TEXCOORD_0" : 18
                    },
                    "indices" : 19,
                    "material" : 0
                }
            ]
        },
        {
            "name" : "Cube.006",
            "primitives" : [
                {
                    "attributes" : {
                        "POSITION" : 20,
                        "NORMAL" : 21,
                        "TEXCOORD_0" : 22
                    },
                    "indices" : 23,
                    "material" : 0
                }
            ]
        },
        {
            "name" : "Cube.016",
            "primitives" : [
                {
                    "attributes" : {
                        "POSITION" : 24,
                        "NORMAL" : 25,
                        "TEXCOORD_0" : 26
                    },
                    "indices" : 27,
                    "material" : 0
                }
            ]
        },
        {
            "name" : "Cube.048",
            "primitives" : [
                {
                    "attributes" : {
                        "POSITION" : 28,
                        "NORMAL" : 29,
                        "TEXCOORD_0" : 30
                    },
                    "indices" : 31,
                    "material" : 0
                }
            ]
        }
    ],
    "accessors" : [
        {
            "bufferView" : 0,
            "componentType" : 5126,
            "count" : 443,
            "max" : [
                0.5057641863822937,
                2.0670065879821777,
                0.34250444173812866
            ],
            "min" : [
                -0.5105844140052795,
                0.23294126987457275,
                -0.3361273407936096
            ],
            "type" : "VEC3"
        },
        {
            "bufferView" : 1,
            "componentType" : 5126,
            "count" : 443,
            "type" : "VEC3"
        },
        {
            "bufferView" : 2,
            "componentType" : 5126,
            "count" : 443,
            "type" : "VEC2"
        },
        {
            "bufferView" : 3,
            "componentType" : 5123,
            "count" : 1164,
            "type" : "SCALAR"
        },
        {
            "bufferView" : 4,
            "componentType" : 5126,
            "count" : 744,
            "max" : [
                0.8862575888633728,
                1.1807775497436523,
                0.1315087080001831
            ],
            "min" : [
                -0.8862571120262146,
                -1.4518163204193115,
                -1.2221755981445312
            ],
            "type" : "VEC3"
        },
        {
            "bufferView" : 5,
            "componentType" : 5126,
            "count" : 744,
            "type" : "VEC3"
        },
        {
            "bufferView" : 6,
            "componentType" : 5126,
            "count" : 744,
            "type" : "VEC2"
        },
        {
            "bufferView" : 7,
            "componentType" : 5123,
            "count" : 2220,
            "type" : "SCALAR"
        },
        {
            "bufferView" : 8,
            "componentType" : 5126,
            "count" : 260,
            "max" : [
                1.729143738746643,
                0.1094941720366478,
                0.10949284583330154
            ],
            "min" : [
                -1.7291436195373535,
                -0.10949280112981796,
                -0.10949403792619705
            ],
            "type" : "VEC3"
        },
        {
            "bufferView" : 9,
            "componentType" : 5126,
            "count" : 260,
            "type" : "VEC3"
        },
        {
            "bufferView" : 10,
            "componentType" : 5126,
            "count" : 260,
            "type" : "VEC2"
        },
        {
            "bufferView" : 11,
            "componentType" : 5123,
            "count" : 768,
            "type" : "SCALAR"
        },
        {
            "bufferView" : 12,
            "componentType" : 5126,
            "count" : 356,
            "max" : [
                1.7336629629135132,
                0.2976974844932556,
                0.2976974844932556
            ],
            "min" : [
                -1.7336629629135132,
                -0.2976974546909332,
                -0.2976973354816437
            ],
            "type" : "VEC3"
        },
        {
            "bufferView" : 13,
            "componentType" : 5126,
            "count" : 356,
            "type" : "VEC3"
        },
        {
            "bufferView" : 14,
            "componentType" : 5126,
            "count" : 356,
            "type" : "VEC2"
        },
        {
            "bufferView" : 15,
            "componentType" : 5123,
            "count" : 1008,
            "type" : "SCALAR"
        },
        {
            "bufferView" : 16,
            "componentType" : 5126,
            "count" : 364,
            "max" : [
                1.7336629629135132,
                0.2976974546909332,
                0.2976974844932556
            ],
            "min" : [
                -1.7336628437042236,
                -0.2976974844932556,
                -0.2976973354816437
            ],
            "type" : "VEC3"
        },
        {
            "bufferView" : 17,
            "componentType" : 5126,
            "count" : 364,
            "type" : "VEC3"
        },
        {
            "bufferView" : 18,
            "componentType" : 5126,
            "count" : 364,
            "type" : "VEC2"
        },
        {
            "bufferView" : 19,
            "componentType" : 5123,
            "count" : 1008,
            "type" : "SCALAR"
        },
        {
            "bufferView" : 20,
            "componentType" : 5126,
            "count" : 356,
            "max" : [
                1.7336629629135132,
                0.29769739508628845,
                0.2976974844932556
            ],
            "min" : [
                -1.7336628437042236,
                -0.2976974844932556,
                -0.2976973354816437
            ],
            "type" : "VEC3"
        },
        {
            "bufferView" : 21,
            "componentType" : 5126,
            "count" : 356,
            "type" : "VEC3"
        },
        {
            "bufferView" : 22,
            "componentType" : 5126,
            "count" : 356,
            "type" : "VEC2"
        },
        {
            "bufferView" : 23,
            "componentType" : 5123,
            "count" : 1008,
            "type" : "SCALAR"
        },
        {
            "bufferView" : 24,
            "componentType" : 5126,
            "count" : 356,
            "max" : [
                1.7336629629135132,
                0.2976974844932556,
                0.2976974844932556
            ],
            "min" : [
                -1.7336628437042236,
                -0.2976974546909332,
                -0.2976973354816437
            ],
            "type" : "VEC3"
        },
        {
            "bufferView" : 25,
            "componentType" : 5126,
            "count" : 356,
            "type" : "VEC3"
        },
        {
            "bufferView" : 26,
            "componentType" : 5126,
            "count" : 356,
            "type" : "VEC2"
        },
        {
            "bufferView" : 27,
            "componentType" : 5123,
            "count" : 1008,
            "type" : "SCALAR"
        },
        {
            "bufferView" : 28,
            "componentType" : 5126,
            "count" : 1225,
            "max" : [
                1.8113510608673096,
                2.2388956546783447,
                -0.0002498626708984375
            ],
            "min" : [
                -1.8113512992858887,
                -1.8485904932022095,
                -3.663005828857422
            ],
            "type" : "VEC3"
        },
        {
            "bufferView" : 29,
            "componentType" : 5126,
            "count" : 1225,
            "type" : "VEC3"
        },
        {
            "bufferView" : 30,
            "componentType" : 5126,
            "count" : 1225,
            "type" : "VEC2"
        },
        {
            "bufferView" : 31,
            "componentType" : 5123,
            "count" : 3264,
            "type" : "SCALAR"
        }
    ],
    "bufferViews" : [
        {
            "buffer" : 0,
            "byteLength" : 5316,
            "byteOffset" : 0
        },
        {
            "buffer" : 0,
            "byteLength" : 5316,
            "byteOffset" : 5316
        },
        {
            "buffer" : 0,
            "byteLength" : 3544,
            "byteOffset" : 10632
        },
        {
            "buffer" : 0,
            "byteLength" : 2328,
            "byteOffset" : 14176
        },
        {
            "buffer" : 0,
            "byteLength" : 8928,
            "byteOffset" : 16504
        },
        {
            "buffer" : 0,
            "byteLength" : 8928,
            "byteOffset" : 25432
        },
        {
            "buffer" : 0,
            "byteLength" : 5952,
            "byteOffset" : 34360
        },
        {
            "buffer" : 0,
            "byteLength" : 4440,
            "byteOffset" : 40312
        },
        {
            "buffer" : 0,
            "byteLength" : 3120,
            "byteOffset" : 44752
        },
        {
            "buffer" : 0,
            "byteLength" : 3120,
            "byteOffset" : 47872
        },
        {
            "buffer" : 0,
            "byteLength" : 2080,
            "byteOffset" : 50992
        },
        {
            "buffer" : 0,
            "byteLength" : 1536,
            "byteOffset" : 53072
        },
        {
            "buffer" : 0,
            "byteLength" : 4272,
            "byteOffset" : 54608
        },
        {
            "buffer" : 0,
            "byteLength" : 4272,
            "byteOffset" : 58880
        },
        {
            "buffer" : 0,
            "byteLength" : 2848,
            "byteOffset" : 63152
        },
        {
            "buffer" : 0,
            "byteLength" : 2016,
            "byteOffset" : 66000
        },
        {
            "buffer" : 0,
            "byteLength" : 4368,
            "byteOffset" : 68016
        },
        {
            "buffer" : 0,
            "byteLength" : 4368,
            "byteOffset" : 72384
        },
        {
            "buffer" : 0,
            "byteLength" : 2912,
            "byteOffset" : 76752
        },
        {
            "buffer" : 0,
            "byteLength" : 2016,
            "byteOffset" : 79664
        },
        {
            "buffer" : 0,
            "byteLength" : 4272,
            "byteOffset" : 81680
        },
        {
            "buffer" : 0,
            "byteLength" : 4272,
            "byteOffset" : 85952
        },
        {
            "buffer" : 0,
            "byteLength" : 2848,
            "byteOffset" : 90224
        },
        {
            "buffer" : 0,
            "byteLength" : 2016,
            "byteOffset" : 93072
        },
        {
            "buffer" : 0,
            "byteLength" : 4272,
            "byteOffset" : 95088
        },
        {
            "buffer" : 0,
            "byteLength" : 4272,
            "byteOffset" : 99360
        },
        {
            "buffer" : 0,
            "byteLength" : 2848,
            "byteOffset" : 103632
        },
        {
            "buffer" : 0,
            "byteLength" : 2016,
            "byteOffset" : 106480
        },
        {
            "buffer" : 0,
            "byteLength" : 14700,
            "byteOffset" : 108496
        },
        {
            "buffer" : 0,
            "byteLength" : 14700,
            "byteOffset" : 123196
        },
        {
            "buffer" : 0,
            "byteLength" : 9800,
            "byteOffset" : 137896
        },
        {
            "buffer" : 0,
            "byteLength" : 6528,
            "byteOffset" : 147696
        }
    ],
    "buffers" : [
        {
            "byteLength" : 154224,
            "uri" : "data:application/octet-stream;base64,"
        }
    ]
}
