# Blender v2.91.0 OBJ File: ''
# www.blender.org
mtllib turret.mtl
o Cube_Cube.002
v -0.450000 0.000000 0.450000
v -0.450000 0.000000 -0.450000
v 0.450000 0.000000 0.450000
v 0.450000 0.000000 -0.450000
v -0.175261 0.900000 0.175261
v -0.450000 0.625261 0.450000
v -0.175261 0.900000 -0.175261
v -0.450000 0.625261 -0.450000
v 0.175261 0.900000 0.175261
v 0.450000 0.625261 0.450000
v 0.175261 0.900000 -0.175261
v 0.450000 0.625261 -0.450000
vt 0.798684 0.576316
vt 0.701316 0.673684
vt 0.701316 0.576316
vt 0.548684 0.500000
vt 0.375000 0.750000
vt 0.375000 0.500000
vt 0.548684 0.000000
vt 0.375000 0.250000
vt 0.375000 0.000000
vt 0.125000 0.750000
vt 0.125000 0.500000
vt 0.548684 0.250000
vt 0.798684 0.673684
vt 0.875000 0.500000
vt 0.875000 0.750000
vt 0.625000 0.500000
vt 0.548684 0.750000
vt 0.625000 0.750000
vt 0.375000 1.000000
vt 0.548684 1.000000
vn 0.0000 1.0000 0.0000
vn 1.0000 0.0000 0.0000
vn -1.0000 0.0000 0.0000
vn 0.0000 -1.0000 0.0000
vn 0.0000 0.0000 -1.0000
vn -0.7071 0.7071 0.0000
vn 0.0000 0.7071 -0.7071
vn 0.7071 0.7071 0.0000
vn 0.0000 0.7071 0.7071
vn 0.0000 0.0000 1.0000
usemtl turret
s off
f 7/1/1 9/2/1 11/3/1
f 12/4/2 3/5/2 4/6/2
f 6/7/3 2/8/3 1/9/3
f 4/6/4 1/10/4 2/11/4
f 8/12/5 4/6/5 2/8/5
f 5/13/6 8/14/6 6/15/6
f 7/1/7 12/16/7 8/14/7
f 11/3/8 10/17/8 12/4/8
f 9/2/9 6/15/9 10/18/9
f 10/17/10 1/19/10 3/5/10
f 7/1/1 5/13/1 9/2/1
f 12/4/2 10/17/2 3/5/2
f 6/7/3 8/12/3 2/8/3
f 4/6/4 3/5/4 1/10/4
f 8/12/5 12/4/5 4/6/5
f 5/13/6 7/1/6 8/14/6
f 7/1/7 11/3/7 12/16/7
f 11/3/8 9/2/8 10/17/8
f 9/2/9 5/13/9 6/15/9
f 10/17/10 6/20/10 1/19/10
