{
    "asset": {
        "generator": "Khronos glTF Blender I/O v1.4.40",
        "version": "2.0"
    },
    "scene": 0,
    "scenes": [
        {
            "name": "Scene",
            "nodes": [
                3,
                4,
                5
            ]
        }
    ],
    "nodes": [
        {
            "mesh": 0,
            "name": "cannon_guns",
            "translation": [
                0,
                2.719265937805176,
                0.2101033627986908
            ]
        },
        {
            "children": [
                0
            ],
            "mesh": 1,
            "name": "cannon_pillar"
        },
        {
            "children": [
                1
            ],
            "name": "cannon_root",
            "scale": [
                0.18400000035762787,
                0.25,
                0.17999999225139618
            ]
        },
        {
            "children": [
                2
            ],
            "mesh": 2,
            "name": "turret"
        },
        {
            "name": "Light",
            "rotation": [
                0.16907575726509094,
                0.7558803558349609,
                -0.27217137813568115,
                0.570947527885437
            ],
            "translation": [
                4.076245307922363,
                5.903861999511719,
                -1.0054539442062378
            ]
        },
        {
            "name": "Camera",
            "rotation": [
                0.483536034822464,
                0.33687159419059753,
                -0.20870360732078552,
                0.7804827094078064
            ],
            "translation": [
                7.358891487121582,
                4.958309173583984,
                6.925790786743164
            ]
        }
    ],
    "meshes": [
        {
            "name": "Cube.003",
            "primitives": [
                {
                    "attributes": {
                        "POSITION": 0,
                        "NORMAL": 1,
                        "TEXCOORD_0": 2
                    },
                    "indices": 3
                }
            ]
        },
        {
            "name": "Cube.002",
            "primitives": [
                {
                    "attributes": {
                        "POSITION": 4,
                        "NORMAL": 5,
                        "TEXCOORD_0": 6
                    },
                    "indices": 7
                }
            ]
        },
        {
            "name": "Cube.001",
            "primitives": [
                {
                    "attributes": {
                        "POSITION": 8,
                        "NORMAL": 9,
                        "TEXCOORD_0": 10
                    },
                    "indices": 11
                }
            ]
        }
    ],
    "accessors": [
        {
            "bufferView": 0,
            "componentType": 5126,
            "count": 159,
            "max": [
                1.4051978588104248,
                0.40178465843200684,
                1.0504704713821411
            ],
            "min": [
                -1.4051978588104248,
                -0.38556694984436035,
                -3.227875232696533
            ],
            "type": "VEC3"
        },
        {
            "bufferView": 1,
            "componentType": 5126,
            "count": 159,
            "type": "VEC3"
        },
        {
            "bufferView": 2,
            "componentType": 5126,
            "count": 159,
            "type": "VEC2"
        },
        {
            "bufferView": 3,
            "componentType": 5123,
            "count": 168,
            "type": "SCALAR"
        },
        {
            "bufferView": 4,
            "componentType": 5126,
            "count": 112,
            "max": [
                0.8385434150695801,
                3.469036340713501,
                0.699999988079071
            ],
            "min": [
                -0.8385434150695801,
                0.9721952676773071,
                -0.7017693519592285
            ],
            "type": "VEC3"
        },
        {
            "bufferView": 5,
            "componentType": 5126,
            "count": 112,
            "type": "VEC3"
        },
        {
            "bufferView": 6,
            "componentType": 5126,
            "count": 112,
            "type": "VEC2"
        },
        {
            "bufferView": 7,
            "componentType": 5123,
            "count": 120,
            "type": "SCALAR"
        },
        {
            "bufferView": 8,
            "componentType": 5126,
            "count": 452,
            "max": [
                0.5520000457763672,
                0.2450760006904602,
                0.540318489074707
            ],
            "min": [
                -0.5520000457763672,
                0,
                -0.5400000214576721
            ],
            "type": "VEC3"
        },
        {
            "bufferView": 9,
            "componentType": 5126,
            "count": 452,
            "type": "VEC3"
        },
        {
            "bufferView": 10,
            "componentType": 5126,
            "count": 452,
            "type": "VEC2"
        },
        {
            "bufferView": 11,
            "componentType": 5123,
            "count": 540,
            "type": "SCALAR"
        }
    ],
    "bufferViews": [
        {
            "buffer": 0,
            "byteLength": 1908,
            "byteOffset": 0
        },
        {
            "buffer": 0,
            "byteLength": 1908,
            "byteOffset": 1908
        },
        {
            "buffer": 0,
            "byteLength": 1272,
            "byteOffset": 3816
        },
        {
            "buffer": 0,
            "byteLength": 336,
            "byteOffset": 5088
        },
        {
            "buffer": 0,
            "byteLength": 1344,
            "byteOffset": 5424
        },
        {
            "buffer": 0,
            "byteLength": 1344,
            "byteOffset": 6768
        },
        {
            "buffer": 0,
            "byteLength": 896,
            "byteOffset": 8112
        },
        {
            "buffer": 0,
            "byteLength": 240,
            "byteOffset": 9008
        },
        {
            "buffer": 0,
            "byteLength": 5424,
            "byteOffset": 9248
        },
        {
            "buffer": 0,
            "byteLength": 5424,
            "byteOffset": 14672
        },
        {
            "buffer": 0,
            "byteLength": 3616,
            "byteOffset": 20096
        },
        {
            "buffer": 0,
            "byteLength": 1080,
            "byteOffset": 23712
        }
    ],
    "buffers": [
        {
            "byteLength": 24792,
            "uri": "data:application/octet-stream;base64,"
        }
    ]
}