{
    "asset": {
        "generator": "Khronos glTF Blender I/O v1.4.40",
        "version": "2.0"
    },
    "scene": 0,
    "scenes": [
        {
            "name": "Scene",
            "nodes": [
                0
            ]
        }
    ],
    "nodes": [
        {
            "mesh": 0,
            "name": "core"
        }
    ],
    "meshes": [
        {
            "name": "core",
            "primitives": [
                {
                    "attributes": {
                        "POSITION": 0,
                        "NORMAL": 1
                    },
                    "indices": 2
                }
            ]
        }
    ],
    "accessors": [
        {
            "bufferView": 0,
            "componentType": 5126,
            "count": 60,
            "max": [
                0.3354089856147766,
                0.875,
                0.3189901113510132
            ],
            "min": [
                -0.3354089856147766,
                0.125,
                -0.31898993253707886
            ],
            "type": "VEC3"
        },
        {
            "bufferView": 1,
            "componentType": 5126,
            "count": 60,
            "type": "VEC3"
        },
        {
            "bufferView": 2,
            "componentType": 5123,
            "count": 60,
            "type": "SCALAR"
        }
    ],
    "bufferViews": [
        {
            "buffer": 0,
            "byteLength": 720,
            "byteOffset": 0
        },
        {
            "buffer": 0,
            "byteLength": 720,
            "byteOffset": 720
        },
        {
            "buffer": 0,
            "byteLength": 120,
            "byteOffset": 1440
        }
    ],
    "buffers": [
        {
            "byteLength": 1560,
            "uri": "data:application/octet-stream;base64,"
        }
    ]
}